<svg version="1.1" xmlns="http://www.w3.org/2000/svg" viewBox="0 0 934.1219242912446 429.8268777455966" width="934.1219242912446" height="429.8268777455966">
  <!-- svg-source:excalidraw -->
  
  <defs>
    <style class="style-fonts">
      @font-face {
        font-family: "Virgil";
        src: url("https://excalidraw.com/Virgil.woff2");
      }
      @font-face {
        font-family: "Cascadia";
        src: url("https://excalidraw.com/Cascadia.woff2");
      }
    </style>
    
  </defs>
  <g stroke-linecap="round" transform="translate(462.2195089555614 248.2422397317643) rotate(0 62.31226059203436 67.00243074412293)"><path d="M78.75 17 M78.75 17 C89.27 25.67, 97.16 37.75, 108.87 51 M78.75 17 C89.32 28.38, 99.82 40.81, 108.87 51 M108.87 51 C126.5 69.63, 124.47 66.29, 108.87 85 M108.87 51 C123.81 67.27, 125.61 68.86, 108.87 85 M108.87 85 C100.27 96, 89.66 105.21, 78.75 117 M108.87 85 C98.19 98.18, 84.87 109.13, 78.75 117 M78.75 117 C63.37 133.05, 64.35 133.36, 47.25 117 M78.75 117 C62.63 134.7, 64.72 132.73, 47.25 117 M47.25 117 C36.11 107.89, 25.12 95.16, 15.75 85 M47.25 117 C35.17 103.77, 23.31 91.21, 15.75 85 M15.75 85 C0.7 66.7, -0.02 67.13, 15.75 51 M15.75 85 C-1.85 69.16, -1.99 69.1, 15.75 51 M15.75 51 C23.65 41.99, 35.76 29.26, 47.25 17 M15.75 51 C27.02 40.66, 37.16 29.06, 47.25 17 M47.25 17 C62.85 0.72, 62.6 0.83, 78.75 17 M47.25 17 C65.02 0.35, 64.74 -1.57, 78.75 17" stroke="#e8590c" stroke-width="1" fill="none"></path></g><g transform="translate(484.1085151257032 305.0577246646125) rotate(0 39.99995422363281 12.5)"><text x="0" y="0" font-family="Virgil, Segoe UI Emoji" font-size="20px" fill="#e8590c" text-anchor="start" style="white-space: pre;" direction="ltr" dominant-baseline="text-before-edge">Verified?</text></g><g stroke-linecap="round" transform="translate(425.7831509478149 136.94343968128675) rotate(0 93.49212787338024 20.585422651019485)"><path d="M10.29 0 M10.29 0 C50.55 2.35, 95.18 3.23, 176.69 0 M10.29 0 C75.26 1.25, 139.52 2.41, 176.69 0 M176.69 0 C184.19 1.56, 185.72 2.57, 186.98 10.29 M176.69 0 C185.76 -2.18, 184.86 4.74, 186.98 10.29 M186.98 10.29 C186.17 15.54, 186.27 23.27, 186.98 30.88 M186.98 10.29 C186.46 17.41, 186.18 25.24, 186.98 30.88 M186.98 30.88 C186.96 36.96, 183.6 41.7, 176.69 41.17 M186.98 30.88 C189.11 35.81, 181.35 41.49, 176.69 41.17 M176.69 41.17 C134.09 38.96, 92.83 39.93, 10.29 41.17 M176.69 41.17 C135.89 40.54, 93.86 41.74, 10.29 41.17 M10.29 41.17 C3.93 39.79, 1.09 39.71, 0 30.88 M10.29 41.17 C5.41 42.52, -1.69 39.08, 0 30.88 M0 30.88 C0 26.3, -0.5 18.99, 0 10.29 M0 30.88 C-0.47 23.24, 0.35 15.91, 0 10.29 M0 10.29 C1.28 1.6, 4.5 -0.27, 10.29 0 M0 10.29 C0.51 1.34, 3.03 -2.24, 10.29 0" stroke="#e8590c" stroke-width="1" fill="none"></path></g><g transform="translate(477.01533009072637 145.02886233230623) rotate(0 42.25994873046875 12.5)"><text x="42.25994873046875" y="0" font-family="Virgil, Segoe UI Emoji" font-size="20px" fill="#e8590c" text-anchor="middle" style="white-space: pre;" direction="ltr" dominant-baseline="text-before-edge">Test fix</text></g><g stroke-linecap="round"><g transform="translate(520.6270521311144 190.1224481964204) rotate(0 -0.17554985330309592 23.02042842348021)"><path d="M0.08 -0.42 C0.33 7.5, 0.94 39.88, 0.99 47.73 M-1.34 -1.69 C-1.18 5.9, 0.06 37.84, 0.19 46.11" stroke="#e8590c" stroke-width="1" fill="none"></path></g><g transform="translate(520.6270521311144 190.1224481964204) rotate(0 -0.17554985330309592 23.02042842348021)"><path d="M-9.13 24.83 C-4.57 29.36, -4.12 35.99, 0.01 44.2 M-9.22 25.07 C-7.49 29.45, -4.45 35.31, -0.73 45.64" stroke="#e8590c" stroke-width="1" fill="none"></path></g><g transform="translate(520.6270521311144 190.1224481964204) rotate(0 -0.17554985330309592 23.02042842348021)"><path d="M6.86 24.38 C7.32 29.04, 3.68 35.78, 0.01 44.2 M6.77 24.62 C4.78 29.19, 4.11 35.15, -0.73 45.64" stroke="#e8590c" stroke-width="1" fill="none"></path></g></g><mask></mask><g stroke-linecap="round" transform="translate(419.77906934126736 16.378788182175583) rotate(0 93.49212787338024 20.585422651019485)"><path d="M10.29 0 M10.29 0 C75.63 -0.73, 138.29 -0.68, 176.69 0 M10.29 0 C69.18 0.29, 126.7 0.72, 176.69 0 M176.69 0 C181.8 0.52, 187.57 4.92, 186.98 10.29 M176.69 0 C182.43 2.2, 185 4.77, 186.98 10.29 M186.98 10.29 C185.43 19.13, 187.8 26.82, 186.98 30.88 M186.98 10.29 C187.4 18.41, 186.2 25.34, 186.98 30.88 M186.98 30.88 C186.1 36.05, 181.67 41.09, 176.69 41.17 M186.98 30.88 C185.26 39.48, 183.93 39.89, 176.69 41.17 M176.69 41.17 C133.23 43.11, 84.95 42.08, 10.29 41.17 M176.69 41.17 C129.19 42.65, 79.67 41.56, 10.29 41.17 M10.29 41.17 C3.02 41.87, 0.14 38.77, 0 30.88 M10.29 41.17 C5.42 38.99, 0.09 38.71, 0 30.88 M0 30.88 C-1.5 22.82, -0.49 17.1, 0 10.29 M0 30.88 C0.12 24.68, -0.9 16.36, 0 10.29 M0 10.29 C-0.88 4.09, 2.75 0.14, 10.29 0 M0 10.29 C0.01 2.17, 2.16 1.94, 10.29 0" stroke="#e8590c" stroke-width="1" fill="none"></path></g><g transform="translate(478.95123566679604 24.464210833195068) rotate(0 34.31996154785156 12.5)"><text x="34.31996154785156" y="0" font-family="Virgil, Segoe UI Emoji" font-size="20px" fill="#e8590c" text-anchor="middle" style="white-space: pre;" direction="ltr" dominant-baseline="text-before-edge">Fix bug</text></g><g stroke-linecap="round"><g transform="translate(514.9866491022324 69.55779669730924) rotate(0 1.5742045531073927 27.74054148749957)"><path d="M-0.38 0.58 C0.28 9.52, 2.6 45.41, 3.53 54.38 M1.62 -0.17 C2.12 8.87, 1.78 46.38, 2.35 55.65" stroke="#e8590c" stroke-width="1" fill="none"></path></g><g transform="translate(514.9866491022324 69.55779669730924) rotate(0 1.5742045531073927 27.74054148749957)"><path d="M-6.66 29.27 C-5.67 38.84, -3.01 44.9, 2.36 53.89 M-8.11 30.96 C-5.16 38.86, -0.13 46.21, 1.76 54.91" stroke="#e8590c" stroke-width="1" fill="none"></path></g><g transform="translate(514.9866491022324 69.55779669730924) rotate(0 1.5742045531073927 27.74054148749957)"><path d="M12.16 28.86 C8.15 38.48, 5.81 44.65, 2.36 53.89 M10.71 30.55 C7.53 38.73, 6.43 46.21, 1.76 54.91" stroke="#e8590c" stroke-width="1" fill="none"></path></g></g><mask></mask><g stroke-linecap="round" transform="translate(72.40006210531328 10) rotate(0 90.06122409821029 33.8801747798029)"><path d="M16.94 0 M16.94 0 C69.69 -1.24, 120.13 -1.24, 163.18 0 M16.94 0 C57.27 1.33, 97.76 2.13, 163.18 0 M163.18 0 C175.4 1.98, 180.97 6.49, 180.12 16.94 M163.18 0 C173.55 0.3, 179.48 4.32, 180.12 16.94 M180.12 16.94 C178.87 26.24, 182.25 31.62, 180.12 50.82 M180.12 16.94 C181.18 28.52, 180.08 38.76, 180.12 50.82 M180.12 50.82 C180.8 63.08, 172.82 68.29, 163.18 67.76 M180.12 50.82 C180.61 60.08, 175.04 65.81, 163.18 67.76 M163.18 67.76 C105.79 68.12, 48.12 66.34, 16.94 67.76 M163.18 67.76 C114.16 68.34, 67.42 69.04, 16.94 67.76 M16.94 67.76 C4.96 67.73, -0.45 62.34, 0 50.82 M16.94 67.76 C4.47 66.98, -0.05 61.44, 0 50.82 M0 50.82 C0.98 39.04, -0.95 28.6, 0 16.94 M0 50.82 C-0.18 42.88, 0.27 34.48, 0 16.94 M0 16.94 C0.83 7.47, 4.63 0.21, 16.94 0 M0 16.94 C-0.66 4.16, 3.42 -0.37, 16.94 0" stroke="#e8590c" stroke-width="1" fill="none"></path></g><g transform="translate(104.99364796942768 34.01632642618938) rotate(0 55.62993621826172 12.5)"><text x="0" y="0" font-family="Virgil, Segoe UI Emoji" font-size="20px" fill="#e8590c" text-anchor="start" style="white-space: pre;" direction="ltr" dominant-baseline="text-before-edge">Report Bug</text></g><g stroke-linecap="round" transform="translate(72.40006210531362 141.2320694002492) rotate(0 88.77463518252148 28.304956145151806)"><path d="M14.15 0 M14.15 0 C64.1 0.82, 110.64 0.11, 163.4 0 M14.15 0 C50.31 0.66, 85.97 -0.91, 163.4 0 M163.4 0 C173.26 -0.15, 178.82 4.86, 177.55 14.15 M163.4 0 C172.61 0.8, 175.71 6.8, 177.55 14.15 M177.55 14.15 C175.82 20.7, 176.14 24.18, 177.55 42.46 M177.55 14.15 C177.54 21.15, 176.92 30.1, 177.55 42.46 M177.55 42.46 C178.5 53.72, 173.98 58.21, 163.4 56.61 M177.55 42.46 C176.85 53.4, 172.82 57.84, 163.4 56.61 M163.4 56.61 C128.13 56.87, 90.73 58.28, 14.15 56.61 M163.4 56.61 C128.44 55.6, 95.42 56.18, 14.15 56.61 M14.15 56.61 C4.08 58.15, 1.68 50.99, 0 42.46 M14.15 56.61 C6.55 58.47, 1.99 53.86, 0 42.46 M0 42.46 C-0.87 33.45, 0.56 26.03, 0 14.15 M0 42.46 C-0.53 35.91, 0.48 31.9, 0 14.15 M0 14.15 C-0.42 4.93, 6.29 0.56, 14.15 0 M0 14.15 C1.63 6.81, 2.79 -0.25, 14.15 0" stroke="#e8590c" stroke-width="1" fill="none"></path></g><g transform="translate(106.53475893334291 157.037025545401) rotate(0 54.63993835449219 12.500000000000014)"><text x="54.63993835449219" y="0" font-family="Virgil, Segoe UI Emoji" font-size="20px" fill="#e8590c" text-anchor="middle" style="white-space: pre;" direction="ltr" dominant-baseline="text-before-edge">Triage Bug</text></g><g stroke-linecap="round" transform="translate(81.40618451513467 266.460057193951) rotate(0 88.77463518252148 28.304956145151806)"><path d="M14.15 0 M14.15 0 C56.94 1.31, 97.16 -0.8, 163.4 0 M14.15 0 C72.14 0.38, 129.02 0.09, 163.4 0 M163.4 0 C172.89 -0.34, 178.39 6.12, 177.55 14.15 M163.4 0 C172.74 0.83, 177.95 2.9, 177.55 14.15 M177.55 14.15 C179.25 23.09, 177.99 32.07, 177.55 42.46 M177.55 14.15 C176.97 21.01, 178.48 27.59, 177.55 42.46 M177.55 42.46 C178.55 52.1, 171.14 57.82, 163.4 56.61 M177.55 42.46 C175.89 51.37, 173.37 57.92, 163.4 56.61 M163.4 56.61 C109.3 55.11, 52.47 58.37, 14.15 56.61 M163.4 56.61 C117.01 56.26, 69.89 55.79, 14.15 56.61 M14.15 56.61 C5.38 57.8, -0.42 50.76, 0 42.46 M14.15 56.61 C6.9 55.95, 0.36 52.58, 0 42.46 M0 42.46 C-0.49 35.17, -0.69 29.86, 0 14.15 M0 42.46 C-0.11 36.15, -0.45 30.42, 0 14.15 M0 14.15 C1.8 4.85, 3.17 1.4, 14.15 0 M0 14.15 C-2.08 5.26, 4.73 -0.51, 14.15 0" stroke="#e8590c" stroke-width="1" fill="none"></path></g><g transform="translate(117.93087310341787 282.2650133391028) rotate(0 52.24994659423828 12.5)"><text x="52.24994659423828" y="0" font-family="Virgil, Segoe UI Emoji" font-size="20px" fill="#e8590c" text-anchor="middle" style="white-space: pre;" direction="ltr" dominant-baseline="text-before-edge">Assign Bug</text></g><g stroke-linecap="round" transform="translate(731.133586937937 126.65072835577706) rotate(0 96.49416867665377 28.304956145151806)"><path d="M14.15 0 M14.15 0 C61.31 0.63, 113.54 0.68, 178.84 0 M14.15 0 C74.49 -0.87, 136.66 0.02, 178.84 0 M178.84 0 C187.01 0.83, 194.75 5.84, 192.99 14.15 M178.84 0 C189.42 0.24, 191.04 6.11, 192.99 14.15 M192.99 14.15 C194.07 22.03, 191.52 27.36, 192.99 42.46 M192.99 14.15 C193.5 24.76, 191.87 34.76, 192.99 42.46 M192.99 42.46 C194.34 52.07, 189.5 55.84, 178.84 56.61 M192.99 42.46 C193.75 53.26, 187.79 55.3, 178.84 56.61 M178.84 56.61 C114.39 55.98, 49.62 55.89, 14.15 56.61 M178.84 56.61 C133.35 55.18, 85.8 55.6, 14.15 56.61 M14.15 56.61 C4.4 55.55, -1.01 50.93, 0 42.46 M14.15 56.61 C6.79 56.76, -1.79 53.51, 0 42.46 M0 42.46 C-0.51 37.95, 1.62 31.89, 0 14.15 M0 42.46 C0.66 33.09, -0.28 23.01, 0 14.15 M0 14.15 C-0.58 5.22, 3.4 1.5, 14.15 0 M0 14.15 C-0.64 6.03, 5.6 -0.4, 14.15 0" stroke="#e8590c" stroke-width="1" fill="none"></path></g><g transform="translate(771.1578230584385 142.45568450092887) rotate(0 56.469932556152344 12.5)"><text x="56.469932556152344" y="0" font-family="Virgil, Segoe UI Emoji" font-size="20px" fill="#e8590c" text-anchor="middle" style="white-space: pre;" direction="ltr" dominant-baseline="text-before-edge">Release Fix</text></g><g stroke-linecap="round"><g transform="translate(159.03038242835385 86.3376089975306) rotate(0 0.09391325132048678 24.488988337187024)"><path d="M0.46 -0.36 C0.45 7.61, -1 40.69, -1 48.98 M-0.76 -1.59 C-0.32 7.1, 1.07 42.42, 1.19 50.57" stroke="#e8590c" stroke-width="1" fill="none"></path></g><g transform="translate(159.03038242835385 86.3376089975306) rotate(0 0.09391325132048678 24.488988337187024)"><path d="M-8.44 26.19 C-5.46 33.65, -2.8 39.47, 1.51 50.65 M-7.22 27.82 C-4.33 36.63, -1.07 43.04, 0.46 50.59" stroke="#e8590c" stroke-width="1" fill="none"></path></g><g transform="translate(159.03038242835385 86.3376089975306) rotate(0 0.09391325132048678 24.488988337187024)"><path d="M8.27 25.7 C7.54 33.33, 6.49 39.26, 1.51 50.65 M9.49 27.33 C6.69 36.17, 4.25 42.75, 0.46 50.59" stroke="#e8590c" stroke-width="1" fill="none"></path></g></g><mask></mask><g stroke-linecap="round"><g transform="translate(163.31901214731636 205.5615151846851) rotate(0 2.262312598749645 27.969139186567958)"><path d="M1.12 -0.93 C1.79 8.12, 3.64 46.23, 4.27 55.48 M0.25 1.19 C0.73 10.93, 2.62 47.86, 3.31 56.87" stroke="#e8590c" stroke-width="1" fill="none"></path></g><g transform="translate(163.31901214731636 205.5615151846851) rotate(0 2.262312598749645 27.969139186567958)"><path d="M-9.41 31.21 C-4.44 40.45, -2.36 45.97, 2.18 55.56 M-8.85 30.74 C-2.72 41.43, 1.6 51.57, 2.64 56.62" stroke="#e8590c" stroke-width="1" fill="none"></path></g><g transform="translate(163.31901214731636 205.5615151846851) rotate(0 2.262312598749645 27.969139186567958)"><path d="M9.68 30.03 C8.47 39.83, 4.36 45.73, 2.18 55.56 M10.24 29.56 C9.02 40.77, 5.99 51.37, 2.64 56.62" stroke="#e8590c" stroke-width="1" fill="none"></path></g></g><mask></mask><g stroke-linecap="round"><g transform="translate(271.39248106516857 300.7690949456502) rotate(0 69.7203163564842 -139.457613377651)"><path d="M-1.15 -1.02 C7.22 -5.83, 43.99 14.65, 50.83 -28.75 C57.66 -72.16, 25.03 -221.7, 39.86 -261.45 C54.7 -301.2, 123.25 -266.26, 139.86 -267.24 M0.45 1.05 C9.16 -3.6, 46.73 16.07, 53.21 -27.45 C59.69 -70.97, 24.75 -220.3, 39.31 -260.05 C53.88 -299.8, 124.08 -264.82, 140.59 -265.95" stroke="#e8590c" stroke-width="1" fill="none"></path></g><g transform="translate(271.39248106516857 300.7690949456502) rotate(0 69.7203163564842 -139.457613377651)"><path d="M109.15 -262.97 C120.55 -262.36, 132 -262.94, 141.2 -264.98 M110.59 -262.86 C121.33 -262.54, 129.78 -264.63, 140.47 -264.99" stroke="#e8590c" stroke-width="1" fill="none"></path></g><g transform="translate(271.39248106516857 300.7690949456502) rotate(0 69.7203163564842 -139.457613377651)"><path d="M113.51 -283.02 C123.39 -275.41, 133.31 -268.96, 141.2 -264.98 M114.95 -282.92 C124.09 -276.13, 131.14 -271.77, 140.47 -264.99" stroke="#e8590c" stroke-width="1" fill="none"></path></g></g><mask></mask><g stroke-linecap="round"><g transform="translate(455.8035589805513 317.06588787770727) rotate(0 -45.09242148046849 -137.15347332734135)"><path d="M-0.25 0.54 C-11.25 -3.33, -51.99 14.64, -67.02 -23.98 C-82.04 -62.6, -95.19 -189.23, -90.41 -231.19 C-85.63 -273.15, -46.85 -268.32, -38.33 -275.75 M1.82 -0.23 C-8.72 -4.35, -49.28 12.69, -64.81 -25.63 C-80.34 -63.94, -95.31 -188.65, -91.36 -230.11 C-87.42 -271.58, -49.6 -266.9, -41.15 -274.41" stroke="#e8590c" stroke-width="1" fill="none"></path></g><g transform="translate(455.8035589805513 317.06588787770727) rotate(0 -45.09242148046849 -137.15347332734135)"><path d="M-63.22 -256.73 C-57.58 -259.78, -54.92 -261.45, -40.41 -274.14 M-65.05 -256.08 C-57.2 -262.14, -48.91 -268.46, -41.7 -275.08" stroke="#e8590c" stroke-width="1" fill="none"></path></g><g transform="translate(455.8035589805513 317.06588787770727) rotate(0 -45.09242148046849 -137.15347332734135)"><path d="M-70.25 -276.01 C-63.23 -274.92, -59.07 -272.46, -40.41 -274.14 M-72.08 -275.36 C-61.96 -274.98, -51.32 -274.85, -41.7 -275.08" stroke="#e8590c" stroke-width="1" fill="none"></path></g></g><mask></mask><g transform="translate(424.06769906022987 288.7609317325555) rotate(0 11.979988098144531 12.5)"><text x="0" y="0" font-family="Virgil, Segoe UI Emoji" font-size="20px" fill="#e8590c" text-anchor="start" style="white-space: pre;" direction="ltr" dominant-baseline="text-before-edge">No</text></g><g transform="translate(599.9296926526381 278.834109563933) rotate(0 16.059982299804688 12.5)"><text x="0" y="0" font-family="Virgil, Segoe UI Emoji" font-size="20px" fill="#e8590c" text-anchor="start" style="white-space: pre;" direction="ltr" dominant-baseline="text-before-edge">Yes</text></g><g stroke-linecap="round"><g transform="translate(588.7510802683857 319.6390657090848) rotate(0 65.7189743121611 -82.2536001994613)"><path d="M0.23 1.14 C11.18 -1.49, 54.13 8.32, 66.59 -16.26 C79.05 -40.83, 64.04 -121.76, 74.98 -146.33 C85.92 -170.89, 122.65 -160.56, 132.23 -163.64 M-1.11 0.69 C9.58 -2.22, 52.96 6.96, 65.48 -17.91 C77.99 -42.77, 62.78 -123.87, 73.96 -148.49 C85.14 -173.11, 123.02 -162.98, 132.55 -165.64" stroke="#e8590c" stroke-width="1" fill="none"></path></g><g transform="translate(588.7510802683857 319.6390657090848) rotate(0 65.7189743121611 -82.2536001994613)"><path d="M106.69 -155.58 C116.68 -159.88, 126.09 -162.76, 134.3 -165.04 M104.63 -154.1 C112.64 -159.06, 121.01 -162.18, 132.24 -166.54" stroke="#e8590c" stroke-width="1" fill="none"></path></g><g transform="translate(588.7510802683857 319.6390657090848) rotate(0 65.7189743121611 -82.2536001994613)"><path d="M106.38 -175.9 C116.4 -172.63, 125.93 -167.94, 134.3 -165.04 M104.32 -174.42 C112.23 -173.46, 120.69 -170.67, 132.24 -166.54" stroke="#e8590c" stroke-width="1" fill="none"></path></g></g><mask></mask><g stroke-linecap="round"><g transform="translate(824.6257148113175 184.11836658987312) rotate(0 -404.438738854672 108.07402483077101)"><path d="M-0.67 -0.54 C-12.61 34.01, 50.17 171.74, -71.23 207.13 C-192.62 242.53, -606.42 246.14, -729.02 211.81 C-851.62 177.49, -801.43 38.78, -806.83 1.21 C-812.24 -36.36, -768.98 -10.94, -761.44 -13.61 M1.18 1.79 C-10.95 35.99, 49.56 170.09, -72.19 205.23 C-193.94 240.38, -606.4 246.52, -729.31 212.66 C-852.22 178.79, -804.6 39.68, -809.65 2.04 C-814.69 -35.59, -767.76 -10.69, -759.58 -13.15" stroke="#e8590c" stroke-width="1" fill="none"></path></g><g transform="translate(824.6257148113175 184.11836658987312) rotate(0 -404.438738854672 108.07402483077101)"><path d="M-784.93 -8.96 C-775.15 -8.68, -769.19 -9.7, -760.43 -14.21 M-784.85 -9.36 C-776.91 -9, -768.58 -10.38, -760.46 -12.44" stroke="#e8590c" stroke-width="1" fill="none"></path></g><g transform="translate(824.6257148113175 184.11836658987312) rotate(0 -404.438738854672 108.07402483077101)"><path d="M-781.95 -25.67 C-773.19 -19.82, -768.22 -15.26, -760.43 -14.21 M-781.86 -26.08 C-774.96 -20.57, -767.55 -16.76, -760.46 -12.44" stroke="#e8590c" stroke-width="1" fill="none"></path></g></g><mask></mask><g transform="translate(309.99014853583003 392.5457709314454) rotate(0 43.949951171875 12.5)"><text x="0" y="0" font-family="Virgil, Segoe UI Emoji" font-size="20px" fill="#e8590c" text-anchor="start" style="white-space: pre;" direction="ltr" dominant-baseline="text-before-edge">Next bug</text></g></svg>