<svg width="256px" height="256px" viewBox="-40 -40 480.00 480.00" fill="none" xmlns="http://www.w3.org/2000/svg"><g id="SVGRepo_bgCarrier" stroke-width="0"><path transform="translate(-40, -40), scale(15)" d="M16,31.385007535417873C18.322317881354778,32.35578753865236,21.41065751311258,31.563987183967917,23.289544884522158,29.889067364305593C25.202843488469295,28.183471913802805,24.660174052239373,25.04463631513257,25.726926808676144,22.714012805151512C26.57987968129352,20.850495691337745,29.20012366953467,19.60109961994371,28.928226305326568,17.56977087753895C28.63358617348021,15.368532295368084,25.284473115778297,14.851542873171995,24.401742280617068,12.813639446709493C23.58141653124643,10.919806594306067,25.014922377779406,8.62174415527194,24.22620930574169,6.7145291967736025C23.30555769437318,4.488268992627208,22.021781017572845,1.559392870241326,19.629627862219813,1.2740208894585088C17.113877037535467,0.9739043210901144,15.860562457685363,4.848397309467472,13.392795816785737,5.422156817076862C10.87313327921702,6.007982199808445,7.788603851590863,2.831937586779277,5.802093923864785,4.488943618550303C3.845776098765148,6.120765534467891,6.465951172782466,9.660883819184983,5.49002240750699,12.014091256530744C4.4661524963058685,14.482896742792768,0.2816199066367578,15.242025567902823,0.23429109291875783,17.91430364240265C0.18964098689515219,20.43533660261806,3.153764640213978,22.051766437534265,5.288479000721676,23.39362910468862C7.071936055319986,24.514694519486966,9.645117669066003,23.631538654576364,11.333541113313231,24.891194561072176C13.501502820928902,26.50861214631092,13.504437664177798,30.34180753601554,16,31.385007535417873" fill="#ff8b4d" strokewidth="0"></path></g><g id="SVGRepo_tracerCarrier" stroke-linecap="round" stroke-linejoin="round"></g><g id="SVGRepo_iconCarrier"> <path d="M163.791 172.411C162.161 160.38 164.658 145.85 165.338 135" stroke="#000000" stroke-opacity="0.9" stroke-width="40" stroke-linecap="round" stroke-linejoin="round"></path> <path d="M233.143 170.97C233.296 159.602 233.436 148.306 233.915 136.96" stroke="#000000" stroke-opacity="0.9" stroke-width="40" stroke-linecap="round" stroke-linejoin="round"></path> <path d="M140 242.511C181.772 273.981 225.956 272.64 260.735 232.188" stroke="#000000" stroke-opacity="0.9" stroke-width="40" stroke-linecap="round" stroke-linejoin="round"></path> </g></svg>