<svg version="1.1" xmlns="http://www.w3.org/2000/svg" viewBox="0 0 446.5290578236345 438.71631065840575" width="446.5290578236345" height="438.71631065840575">
  <!-- svg-source:excalidraw -->
  
  <defs>
    <style class="style-fonts">
      @font-face {
        font-family: "Virgil";
        src: url("https://excalidraw.com/Virgil.woff2");
      }
      @font-face {
        font-family: "Cascadia";
        src: url("https://excalidraw.com/Cascadia.woff2");
      }
    </style>
    
  </defs>
  <g stroke-linecap="round" transform="translate(10 380.71631065840575) rotate(0 210 24)"><path d="M12 0 M12 0 C121.5 2.05, 230.18 1.33, 408 0 M12 0 C107.14 2.09, 201.74 1.81, 408 0 M408 0 C416.56 1.88, 419.9 4.84, 420 12 M408 0 C413.72 -0.16, 418.79 5.58, 420 12 M420 12 C421.84 22.31, 420.31 32.21, 420 36 M420 12 C419.32 19.7, 420.51 25.51, 420 36 M420 36 C421.9 44.26, 417.22 48.8, 408 48 M420 36 C420.56 43.93, 415.56 47.93, 408 48 M408 48 C259.76 49.27, 113.8 49.93, 12 48 M408 48 C291.63 47.99, 175.84 47.66, 12 48 M12 48 C3.14 46.87, -1.35 42.97, 0 36 M12 48 C3.23 48.06, -0.41 44.62, 0 36 M0 36 C1.21 31.08, 0.18 23.28, 0 12 M0 36 C0.79 29.85, -0.15 20.94, 0 12 M0 12 C0.39 3.51, 2.59 -1.16, 12 0 M0 12 C-1.42 2.68, 2.44 0.49, 12 0" stroke="#e8590c" stroke-width="1" fill="none"></path></g><g transform="translate(170.88005828857422 392.21631065840575) rotate(0 49.11994171142578 12.5)"><text x="49.11994171142578" y="0" font-family="Virgil, Segoe UI Emoji" font-size="20px" fill="#e8590c" text-anchor="middle" style="white-space: pre;" direction="ltr" dominant-baseline="text-before-edge">Resources</text></g><g stroke-linecap="round" transform="translate(10.674545351475672 279.5345079370811) rotate(0 65 30)"><path d="M15 0 M15 0 C38.47 0.67, 59.98 -0.19, 115 0 M15 0 C43.21 0.25, 70.4 -1.53, 115 0 M115 0 C126.04 -0.49, 129.87 6.8, 130 15 M115 0 C124.46 -0.53, 132.1 6.28, 130 15 M130 15 C128.52 23.97, 129.2 35.05, 130 45 M130 15 C129.6 22.58, 130.63 32.51, 130 45 M130 45 C130.07 54.42, 124.91 58.35, 115 60 M130 45 C129.99 56.37, 127.17 59.21, 115 60 M115 60 C92.41 58.6, 71.4 58.6, 15 60 M115 60 C92.56 60.42, 67.64 60.82, 15 60 M15 60 C3.96 58.47, -2 53.2, 0 45 M15 60 C7.13 60.81, -2.06 53.89, 0 45 M0 45 C-0.65 39.51, -1.87 31.31, 0 15 M0 45 C0.11 34.4, -0.27 25.12, 0 15 M0 15 C0.03 3.62, 3.58 -0.33, 15 0 M0 15 C-0.98 5.4, 4.78 0.09, 15 0" stroke="#e8590c" stroke-width="1" fill="none"></path></g><g transform="translate(26.10459143301864 297.0345079370811) rotate(0 49.56995391845703 12.5)"><text x="49.56995391845703" y="0" font-family="Virgil, Segoe UI Emoji" font-size="20px" fill="#e8590c" text-anchor="middle" style="white-space: pre;" direction="ltr" dominant-baseline="text-before-edge">Project-01</text></g><g stroke-linecap="round" transform="translate(155.45814966035482 279.8890487534785) rotate(0 65 30)"><path d="M15 0 M15 0 C44.85 0.41, 76.82 0.44, 115 0 M15 0 C46.71 0.22, 78.19 -0.35, 115 0 M115 0 C123.17 1.1, 131.55 3.46, 130 15 M115 0 C124.52 1.94, 131.24 5.83, 130 15 M130 15 C131.92 23.16, 128.57 29.51, 130 45 M130 15 C129.71 22, 130.03 27.66, 130 45 M130 45 C131.8 56.91, 123.81 58.8, 115 60 M130 45 C130.05 55.04, 125.83 62.19, 115 60 M115 60 C89.35 57.42, 63.43 60.45, 15 60 M115 60 C89.46 60.97, 65.61 60.34, 15 60 M15 60 C5.4 61.53, 1.44 56.94, 0 45 M15 60 C3.08 60.8, -1.15 54.04, 0 45 M0 45 C-0.51 36.84, 1.16 29.35, 0 15 M0 45 C-0.78 34.07, 0.8 23.9, 0 15 M0 15 C-1.16 7, 3.08 -1.33, 15 0 M0 15 C-1.98 3.63, 5.47 1.76, 15 0" stroke="#e8590c" stroke-width="1" fill="none"></path></g><g transform="translate(166.47819970918295 297.3890487534785) rotate(0 53.979949951171875 12.5)"><text x="53.979949951171875" y="0" font-family="Virgil, Segoe UI Emoji" font-size="20px" fill="#e8590c" text-anchor="middle" style="white-space: pre;" direction="ltr" dominant-baseline="text-before-edge">Project-02</text></g><g stroke-linecap="round" transform="translate(301.1599455790622 279.8890487534785) rotate(0 65 30)"><path d="M15 0 M15 0 C40.75 1.36, 67.16 1.02, 115 0 M15 0 C43.56 1.58, 72.88 0.22, 115 0 M115 0 C127 -1.92, 128.67 3.28, 130 15 M115 0 C123.63 0.47, 131.76 5.25, 130 15 M130 15 C130.61 21.46, 128.09 28.27, 130 45 M130 15 C129.99 22.27, 129.12 27.89, 130 45 M130 45 C129.71 56.69, 124.35 61.87, 115 60 M130 45 C130.28 54.28, 127.21 57.96, 115 60 M115 60 C93.86 61.16, 67.67 60.67, 15 60 M115 60 C86.02 60.78, 55.68 61.29, 15 60 M15 60 C5.45 59.47, -1.1 56.15, 0 45 M15 60 C5.7 57.93, -2.02 56.46, 0 45 M0 45 C0.42 38, 2.16 28.75, 0 15 M0 45 C0.88 35.26, -0.75 23.22, 0 15 M0 15 C0.47 5.83, 4.9 0.15, 15 0 M0 15 C-1.86 3.89, 5.46 -1.14, 15 0" stroke="#e8590c" stroke-width="1" fill="none"></path></g><g transform="translate(312.4900008158786 297.3890487534785) rotate(0 53.669944763183594 12.5)"><text x="53.669944763183594" y="0" font-family="Virgil, Segoe UI Emoji" font-size="20px" fill="#e8590c" text-anchor="middle" style="white-space: pre;" direction="ltr" dominant-baseline="text-before-edge">Project-03</text></g><g stroke-linecap="round" transform="translate(156.28541156528217 91.04543650821213) rotate(0 67.5 30.5)"><path d="M15.25 0 M15.25 0 C53.97 0.18, 92.67 -1.47, 119.75 0 M15.25 0 C52.19 -0.87, 90.37 -1.3, 119.75 0 M119.75 0 C129.12 -1.42, 134.9 3.5, 135 15.25 M119.75 0 C128.65 1.98, 135.91 3.46, 135 15.25 M135 15.25 C134.83 25.42, 136.29 38.03, 135 45.75 M135 15.25 C134.47 26.83, 135.14 36.64, 135 45.75 M135 45.75 C135.82 57.6, 128.65 62.79, 119.75 61 M135 45.75 C137.23 55.61, 129.72 60.53, 119.75 61 M119.75 61 C87.58 60.66, 57.43 61.87, 15.25 61 M119.75 61 C79.73 61.36, 40.41 61.91, 15.25 61 M15.25 61 C4.24 60.68, -1 54.11, 0 45.75 M15.25 61 C4.29 61.34, 0.65 54.5, 0 45.75 M0 45.75 C0.69 37.47, 1.55 32.41, 0 15.25 M0 45.75 C-0.28 37.48, 0.28 27.46, 0 15.25 M0 15.25 C1.38 4.26, 4.08 1.58, 15.25 0 M0 15.25 C-0.14 5.47, 4.96 1.82, 15.25 0" stroke="#e8590c" stroke-width="1" fill="none"></path></g><g transform="translate(174.3554646658681 109.04543650821213) rotate(0 49.42994689941406 12.5)"><text x="49.42994689941406" y="0" font-family="Virgil, Segoe UI Emoji" font-size="20px" fill="#e8590c" text-anchor="middle" style="white-space: pre;" direction="ltr" dominant-baseline="text-before-edge">Program-A</text></g><g stroke-linecap="round" transform="translate(230.48540022758652 178.43451360592883) rotate(0 67.5 32)"><path d="M16 0 M16 0 C43.37 1.42, 68.67 0.24, 119 0 M16 0 C45.03 -0.82, 74.88 -0.32, 119 0 M119 0 C128.03 1.46, 133.69 5.92, 135 16 M119 0 C130.96 0.43, 135.05 6.85, 135 16 M135 16 C136.78 21.68, 134.33 29.01, 135 48 M135 16 C136.05 28.61, 135.42 41.36, 135 48 M135 48 C133.15 57.68, 131 65.37, 119 64 M135 48 C135.18 58.69, 131.29 63.71, 119 64 M119 64 C94.77 62.08, 72.58 64.27, 16 64 M119 64 C81.3 64.35, 44.5 64.83, 16 64 M16 64 C7.27 64.15, 1.06 60.66, 0 48 M16 64 C7.15 62.21, -0.66 59.68, 0 48 M0 48 C1.75 35.93, -0.7 25.19, 0 16 M0 48 C-0.35 36.46, 0.52 26.06, 0 16 M0 16 C-0.29 5.87, 3.52 0.77, 16 0 M0 16 C1.87 5.36, 7.33 0.71, 16 0" stroke="#e8590c" stroke-width="1" fill="none"></path></g><g transform="translate(247.8454542436998 197.93451360592883) rotate(0 50.13994598388672 12.5)"><text x="50.13994598388672" y="0" font-family="Virgil, Segoe UI Emoji" font-size="20px" fill="#e8590c" text-anchor="middle" style="white-space: pre;" direction="ltr" dominant-baseline="text-before-edge">Program-B</text></g><g stroke-linecap="round" transform="translate(16.529057823634503 10) rotate(0 210 24)"><path d="M12 0 M12 0 C115.93 2.45, 220.87 1.22, 408 0 M12 0 C131.45 2.33, 251.58 2.12, 408 0 M408 0 C416.1 1.75, 418.77 3.86, 420 12 M408 0 C418.12 0.45, 419.97 3.73, 420 12 M420 12 C419.86 17.96, 420.83 28.81, 420 36 M420 12 C419.56 19.49, 418.82 25.09, 420 36 M420 36 C421.49 42.55, 416.84 46.36, 408 48 M420 36 C421.38 42.64, 414.35 46.59, 408 48 M408 48 C315.54 50.88, 223.56 50.96, 12 48 M408 48 C320.73 49.64, 233.42 49.69, 12 48 M12 48 C2.92 46.54, -1.72 42.71, 0 36 M12 48 C3.55 47.97, 0.66 44.35, 0 36 M0 36 C-0.11 28.13, 1.08 21.09, 0 12 M0 36 C1.07 28.72, 0.56 22.91, 0 12 M0 12 C0.64 2.91, 2.54 -1.58, 12 0 M0 12 C1.36 3.15, 1.93 1.39, 12 0" stroke="#e8590c" stroke-width="1" fill="none"></path></g><g transform="translate(183.66911061904466 21.5) rotate(0 42.859947204589844 12.5)"><text x="42.859947204589844" y="0" font-family="Virgil, Segoe UI Emoji" font-size="20px" fill="#e8590c" text-anchor="middle" style="white-space: pre;" direction="ltr" dominant-baseline="text-before-edge">Portfolio</text></g><g stroke-linecap="round"><g transform="translate(72.05817233574544 378.6926746039793) rotate(0 -1.8369517876983537 -16.767428650334992)"><path d="M-0.72 1.02 C-1.64 -2.07, -4.57 -13.21, -4.77 -19.14 C-4.97 -25.07, -2.59 -32.03, -1.92 -34.56 M1.11 0.51 C0.5 -2.41, -1.75 -12.39, -2.44 -18.09 C-3.12 -23.79, -3.35 -31.11, -2.99 -33.68" stroke="#e8590c" stroke-width="1" fill="none"></path></g><g transform="translate(72.05817233574544 378.6926746039793) rotate(0 -1.8369517876983537 -16.767428650334992)"><path d="M-4.37 -6.03 C-4.1 -3.51, -2.46 -0.36, -1.09 1.67 M-5.34 -5.42 C-3.62 -3.56, -2.81 -2.05, -0.82 1.39" stroke="#e8590c" stroke-width="1" fill="none"></path></g><g transform="translate(72.05817233574544 378.6926746039793) rotate(0 -1.8369517876983537 -16.767428650334992)"><path d="M0.87 -7.27 C-0.78 -4.33, -1.05 -0.73, -1.09 1.67 M-0.1 -6.67 C0.33 -4.47, -0.17 -2.66, -0.82 1.39" stroke="#e8590c" stroke-width="1" fill="none"></path></g><g transform="translate(72.05817233574544 378.6926746039793) rotate(0 -1.8369517876983537 -16.767428650334992)"><path d="M0 -26.63 C-2.09 -29.29, -2.87 -31.29, -3.36 -33.03 M-0.96 -26.02 C-0.92 -27.62, -1.76 -29.61, -3.09 -33.31" stroke="#e8590c" stroke-width="1" fill="none"></path></g><g transform="translate(72.05817233574544 378.6926746039793) rotate(0 -1.8369517876983537 -16.767428650334992)"><path d="M-5.38 -26.89 C-5.5 -29.43, -4.32 -31.33, -3.36 -33.03 M-6.34 -26.29 C-4.96 -27.84, -4.47 -29.77, -3.09 -33.31" stroke="#e8590c" stroke-width="1" fill="none"></path></g></g><mask></mask><g stroke-linecap="round"><g transform="translate(217.75996825445282 378.6926746039793) rotate(0 0.3668655287325464 -15.536972018968797)"><path d="M-0.72 -0.93 C-0.36 -3.48, 1.35 -9.1, 1.45 -14.32 C1.55 -19.55, 0.07 -29.27, -0.12 -32.28 M1.1 1.2 C1.32 -0.7, 0.48 -7.81, 0.2 -13.22 C-0.08 -18.63, -0.74 -28.2, -0.59 -31.26" stroke="#e8590c" stroke-width="1" fill="none"></path></g><g transform="translate(217.75996825445282 378.6926746039793) rotate(0 0.3668655287325464 -15.536972018968797)"><path d="M-2.83 -10.46 C-2.34 -7.4, -1.81 -4.89, -1.2 -0.75 M-1.73 -9.57 C-1.64 -6.67, -1.37 -3.49, -0.96 -0.92" stroke="#e8590c" stroke-width="1" fill="none"></path></g><g transform="translate(217.75996825445282 378.6926746039793) rotate(0 0.3668655287325464 -15.536972018968797)"><path d="M3.34 -9.24 C2.34 -6.51, 1.39 -4.29, -1.2 -0.75 M4.45 -8.35 C2.48 -5.84, 0.67 -3.07, -0.96 -0.92" stroke="#e8590c" stroke-width="1" fill="none"></path></g><g transform="translate(217.75996825445282 378.6926746039793) rotate(0 0.3668655287325464 -15.536972018968797)"><path d="M1.96 -23.09 C1.18 -24.31, 0.59 -26.05, -1.07 -31.09 M3.06 -22.2 C1.72 -25.23, 0.42 -27.99, -0.82 -31.26" stroke="#e8590c" stroke-width="1" fill="none"></path></g><g transform="translate(217.75996825445282 378.6926746039793) rotate(0 0.3668655287325464 -15.536972018968797)"><path d="M-4.34 -23.01 C-3.61 -24.21, -2.68 -25.97, -1.07 -31.09 M-3.23 -22.12 C-2.46 -25.2, -1.65 -27.98, -0.82 -31.26" stroke="#e8590c" stroke-width="1" fill="none"></path></g></g><mask></mask><g stroke-linecap="round"><g transform="translate(372.2308537423419 378.6926746039793) rotate(0 1.3444394385301166 -16.50255230998671)"><path d="M-0.57 -0.83 C0.09 -4.14, 3.11 -15.22, 3.26 -20.81 C3.4 -26.4, 0.93 -32.27, 0.31 -34.35 M1.33 1.35 C1.94 -1.73, 2.81 -13.79, 2.6 -19.57 C2.39 -25.36, 0.51 -31.3, 0.06 -33.37" stroke="#e8590c" stroke-width="1" fill="none"></path></g><g transform="translate(372.2308537423419 378.6926746039793) rotate(0 1.3444394385301166 -16.50255230998671)"><path d="M-1.96 -7.4 C-1.65 -5.49, -1.46 -4.28, -0.32 -1.35 M-1.42 -7.5 C-1.21 -5.11, -0.99 -3.13, -0.57 -1.15" stroke="#e8590c" stroke-width="1" fill="none"></path></g><g transform="translate(372.2308537423419 378.6926746039793) rotate(0 1.3444394385301166 -16.50255230998671)"><path d="M2.68 -6.37 C1.89 -4.73, 0.96 -3.77, -0.32 -1.35 M3.23 -6.47 C1.87 -4.38, 0.54 -2.74, -0.57 -1.15" stroke="#e8590c" stroke-width="1" fill="none"></path></g><g transform="translate(372.2308537423419 378.6926746039793) rotate(0 1.3444394385301166 -16.50255230998671)"><path d="M3.49 -27.29 C2.74 -28.44, 1.78 -30.26, 0.31 -33.89 M4.03 -27.38 C2.52 -29.17, 1.14 -31.41, 0.07 -33.69" stroke="#e8590c" stroke-width="1" fill="none"></path></g><g transform="translate(372.2308537423419 378.6926746039793) rotate(0 1.3444394385301166 -16.50255230998671)"><path d="M-1.12 -26.13 C-0.75 -27.53, -0.61 -29.63, 0.31 -33.89 M-0.58 -26.22 C-0.56 -28.44, -0.41 -31.07, 0.07 -33.69" stroke="#e8590c" stroke-width="1" fill="none"></path></g></g><mask></mask><g stroke-linecap="round"><g transform="translate(344.5744943318464 278.8599625856057) rotate(0 -5.995636933578567 -18.185851605691518)"><path d="M0.56 -0.57 C0.48 -3.8, 1.04 -14.28, -1.04 -20.19 C-3.12 -26.09, -9.91 -33.36, -11.92 -36 M-0.61 1.74 C-0.71 -1.26, 0.53 -12.34, -1.47 -18.98 C-3.46 -25.62, -10.6 -35.49, -12.56 -38.11" stroke="#e8590c" stroke-width="1" fill="none"></path></g><g transform="translate(344.5744943318464 278.8599625856057) rotate(0 -5.995636933578567 -18.185851605691518)"><path d="M-3.51 -8.91 C-2.71 -7.25, -0.94 -5.87, 0.89 0.28 M-3.18 -9.26 C-1.84 -6.1, -0.16 -2.92, 0.79 -0.69" stroke="#e8590c" stroke-width="1" fill="none"></path></g><g transform="translate(344.5744943318464 278.8599625856057) rotate(0 -5.995636933578567 -18.185851605691518)"><path d="M3.21 -9.09 C2.31 -7.35, 2.39 -5.92, 0.89 0.28 M3.55 -9.44 C2.2 -6.16, 1.21 -2.91, 0.79 -0.69" stroke="#e8590c" stroke-width="1" fill="none"></path></g><g transform="translate(344.5744943318464 278.8599625856057) rotate(0 -5.995636933578567 -18.185851605691518)"><path d="M-4.92 -31.75 C-6.97 -33.74, -8.15 -36.07, -12.23 -37.27 M-4.58 -32.1 C-7.94 -34.71, -10.92 -37.39, -12.34 -38.24" stroke="#e8590c" stroke-width="1" fill="none"></path></g><g transform="translate(344.5744943318464 278.8599625856057) rotate(0 -5.995636933578567 -18.185851605691518)"><path d="M-10.39 -27.83 C-11.03 -30.84, -10.84 -34.15, -12.23 -37.27 M-10.05 -28.18 C-11.24 -32.39, -12.04 -36.62, -12.34 -38.24" stroke="#e8590c" stroke-width="1" fill="none"></path></g></g><mask></mask><g stroke-linecap="round"><g transform="translate(235.29814739281574 278.18541723413017) rotate(0 9.210962242298137 -16.22395388645728)"><path d="M0.99 -0.63 C1.72 -3.83, 2.45 -14.58, 4.95 -19.81 C7.44 -25.03, 13.8 -30.08, 15.96 -31.98 M0.05 1.66 C0.59 -1.87, 1.06 -15.74, 4.12 -21.7 C7.17 -27.67, 15.95 -32.2, 18.38 -34.11" stroke="#e8590c" stroke-width="1" fill="none"></path></g><g transform="translate(235.29814739281574 278.18541723413017) rotate(0 9.210962242298137 -16.22395388645728)"><path d="M-1.08 -8.9 C0.2 -6.8, 0.74 -2.49, 1.83 -0.47 M-0.85 -9.06 C-0.06 -6.39, 0.73 -3.02, 0.91 -0.4" stroke="#e8590c" stroke-width="1" fill="none"></path></g><g transform="translate(235.29814739281574 278.18541723413017) rotate(0 9.210962242298137 -16.22395388645728)"><path d="M4.72 -7.97 C3.99 -6.14, 2.52 -2.16, 1.83 -0.47 M4.95 -8.12 C3.62 -5.75, 2.29 -2.71, 0.91 -0.4" stroke="#e8590c" stroke-width="1" fill="none"></path></g><g transform="translate(235.29814739281574 278.18541723413017) rotate(0 9.210962242298137 -16.22395388645728)"><path d="M12.86 -27.02 C15.4 -30.27, 17.14 -31.28, 19.22 -33.95 M13.09 -27.18 C15.18 -30.16, 17.23 -32.4, 18.3 -33.88" stroke="#e8590c" stroke-width="1" fill="none"></path></g><g transform="translate(235.29814739281574 278.18541723413017) rotate(0 9.210962242298137 -16.22395388645728)"><path d="M9.59 -31.9 C13.24 -33.48, 16.11 -32.81, 19.22 -33.95 M9.82 -32.06 C13.09 -33.28, 16.34 -33.74, 18.3 -33.88" stroke="#e8590c" stroke-width="1" fill="none"></path></g></g><mask></mask><g stroke-linecap="round"><g transform="translate(185.38179138362898 278.8599625856057) rotate(0 -1.3521628350914625 -60.91160919780838)"><path d="M0.23 0.43 C-0.43 -19.52, -2.73 -100.34, -2.93 -120.34 M-1.12 -0.39 C-1.48 -20.66, -0.68 -102.1, -0.69 -122.25" stroke="#e8590c" stroke-width="1" fill="none"></path></g><g transform="translate(185.38179138362898 278.8599625856057) rotate(0 -1.3521628350914625 -60.91160919780838)"><path d="M-10.1 -28.97 C-6.07 -15.1, -0.56 -5.79, 1.53 -0.1 M-10.82 -28.4 C-6.15 -16.74, -2.45 -5, 1.09 0.49" stroke="#e8590c" stroke-width="1" fill="none"></path></g><g transform="translate(185.38179138362898 278.8599625856057) rotate(0 -1.3521628350914625 -60.91160919780838)"><path d="M10.41 -29.55 C6.6 -15.42, 4.27 -5.89, 1.53 -0.1 M9.7 -28.97 C6.29 -17.08, 1.92 -5.12, 1.09 0.49" stroke="#e8590c" stroke-width="1" fill="none"></path></g><g transform="translate(185.38179138362898 278.8599625856057) rotate(0 -1.3521628350914625 -60.91160919780838)"><path d="M10.14 -95.52 C6.38 -103.06, 3.8 -115.21, 0.62 -122.79 M9.43 -94.94 C6.05 -105.37, 1.43 -115.72, 0.17 -122.19" stroke="#e8590c" stroke-width="1" fill="none"></path></g><g transform="translate(185.38179138362898 278.8599625856057) rotate(0 -1.3521628350914625 -60.91160919780838)"><path d="M-10.38 -95.62 C-6.3 -103.16, -1.04 -115.27, 0.62 -122.79 M-11.09 -95.04 C-6.39 -105.43, -2.94 -115.74, 0.17 -122.19" stroke="#e8590c" stroke-width="1" fill="none"></path></g></g><mask></mask><g stroke-linecap="round"><g transform="translate(67.34080941220668 278.1854172341301) rotate(0 -0.1441865509860918 -108.63541046799673)"><path d="M-0.91 0.4 C-1 -17.24, -0.39 -69.38, -0.32 -105.4 C-0.24 -141.43, -0.34 -197.41, -0.46 -215.74 M0.82 -0.43 C0.64 -18.41, -0.4 -70.7, -0.72 -106.91 C-1.05 -143.12, -1.07 -199.26, -1.11 -217.67" stroke="#e8590c" stroke-width="1" fill="none"></path></g><g transform="translate(67.34080941220668 278.1854172341301) rotate(0 -0.1441865509860918 -108.63541046799673)"><path d="M-10.33 -26.12 C-5.72 -18.4, -3.15 -10.29, 0.96 -0.62 M-10.54 -28.1 C-8.15 -18.75, -4.07 -10.72, -1.61 0.12" stroke="#e8590c" stroke-width="1" fill="none"></path></g><g transform="translate(67.34080941220668 278.1854172341301) rotate(0 -0.1441865509860918 -108.63541046799673)"><path d="M10.19 -26 C8.25 -18.47, 4.28 -10.4, 0.96 -0.62 M9.98 -27.98 C6.21 -18.86, 4.11 -10.86, -1.61 0.12" stroke="#e8590c" stroke-width="1" fill="none"></path></g><g transform="translate(67.34080941220668 278.1854172341301) rotate(0 -0.1441865509860918 -108.63541046799673)"><path d="M9.87 -187.77 C7.77 -198.19, 3.83 -208.07, 0.76 -218.69 M9.66 -189.75 C5.92 -197.54, 3.86 -206.47, -1.81 -217.95" stroke="#e8590c" stroke-width="1" fill="none"></path></g><g transform="translate(67.34080941220668 278.1854172341301) rotate(0 -0.1441865509860918 -108.63541046799673)"><path d="M-10.66 -187.74 C-6.21 -198.01, -3.6 -207.91, 0.76 -218.69 M-10.86 -189.72 C-8.44 -197.33, -4.33 -206.26, -1.81 -217.95" stroke="#e8590c" stroke-width="1" fill="none"></path></g></g><mask></mask><g stroke-linecap="round"><g transform="translate(269.0254149665907 177.00361451280554) rotate(0 -9.890804602790922 -11.195666726258004)"><path d="M1.03 1.17 C0.88 -1.23, 1.68 -10.22, -1.8 -14.05 C-5.29 -17.89, -16.82 -20.33, -19.88 -21.81 M0.12 0.75 C-0.09 -2.04, 0.86 -11.71, -2.63 -15.76 C-6.12 -19.82, -17.88 -22.56, -20.82 -23.57" stroke="#e8590c" stroke-width="1" fill="none"></path></g><g transform="translate(269.0254149665907 177.00361451280554) rotate(0 -9.890804602790922 -11.195666726258004)"><path d="M-1.92 -7.48 C-1.33 -5.97, -0.18 -4.22, 1.04 1.18 M-2.95 -7.41 C-1.6 -5.8, -1.55 -4.13, 0.98 1.6" stroke="#e8590c" stroke-width="1" fill="none"></path></g><g transform="translate(269.0254149665907 177.00361451280554) rotate(0 -9.890804602790922 -11.195666726258004)"><path d="M4.67 -7.92 C3.79 -6.25, 3.45 -4.4, 1.04 1.18 M3.64 -7.85 C3.63 -6.16, 2.32 -4.41, 0.98 1.6" stroke="#e8590c" stroke-width="1" fill="none"></path></g><g transform="translate(269.0254149665907 177.00361451280554) rotate(0 -9.890804602790922 -11.195666726258004)"><path d="M-10.23 -23.95 C-12.7 -24.18, -14.6 -24.29, -20.81 -23.56 M-11.26 -23.88 C-12.75 -24.01, -15.5 -24.06, -20.87 -23.14" stroke="#e8590c" stroke-width="1" fill="none"></path></g><g transform="translate(269.0254149665907 177.00361451280554) rotate(0 -9.890804602790922 -11.195666726258004)"><path d="M-12.12 -17.62 C-14.19 -19.29, -15.66 -20.81, -20.81 -23.56 M-13.15 -17.55 C-14.28 -18.98, -16.64 -20.34, -20.87 -23.14" stroke="#e8590c" stroke-width="1" fill="none"></path></g></g><mask></mask><g stroke-linecap="round"><g transform="translate(215.00389778822773 88.63817346951532) rotate(0 -0.6529614202099765 -14.107161647618241)"><path d="M0.22 0.79 C0.01 -1.58, -0.18 -8.08, -0.26 -13.04 C-0.35 -18.01, -0.38 -26.15, -0.28 -29 M-1.12 0.15 C-1.61 -2.02, -1.34 -9.94, -1.38 -14.58 C-1.42 -19.22, -1.7 -25.17, -1.37 -27.68" stroke="#e8590c" stroke-width="1" fill="none"></path></g><g transform="translate(215.00389778822773 88.63817346951532) rotate(0 -0.6529614202099765 -14.107161647618241)"><path d="M-2.12 -6.27 C-0.75 -3.81, -0.35 -0.78, -0.47 1.13 M-2.29 -6.05 C-2.1 -4.31, -1.1 -1.98, 0.03 0.57" stroke="#e8590c" stroke-width="1" fill="none"></path></g><g transform="translate(215.00389778822773 88.63817346951532) rotate(0 -0.6529614202099765 -14.107161647618241)"><path d="M2.95 -6.49 C2.36 -3.93, 0.81 -0.82, -0.47 1.13 M2.78 -6.27 C1.57 -4.43, 1.18 -2.05, 0.03 0.57" stroke="#e8590c" stroke-width="1" fill="none"></path></g><g transform="translate(215.00389778822773 88.63817346951532) rotate(0 -0.6529614202099765 -14.107161647618241)"><path d="M1.3 -20.79 C0.6 -23.7, -0.94 -26.06, -2.06 -27.33 M1.13 -20.57 C-0.03 -22.63, -0.42 -24.15, -1.56 -27.9" stroke="#e8590c" stroke-width="1" fill="none"></path></g><g transform="translate(215.00389778822773 88.63817346951532) rotate(0 -0.6529614202099765 -14.107161647618241)"><path d="M-3.77 -21.04 C-2.51 -23.87, -2.09 -26.13, -2.06 -27.33 M-3.94 -20.82 C-3.71 -22.84, -2.7 -24.29, -1.56 -27.9" stroke="#e8590c" stroke-width="1" fill="none"></path></g></g><mask></mask><g stroke-linecap="round"><g transform="translate(403.3031463303655 278.8890487534785) rotate(0 -0.7358174872954351 -108.59467954147232)"><path d="M0.01 0 C-0.48 -35.79, -1.64 -179.34, -1.8 -215.36 M-1.45 -1.04 C-1.68 -37.14, 0.4 -181.54, 0.33 -217.19" stroke="#e8590c" stroke-width="1" fill="none"></path></g><g transform="translate(403.3031463303655 278.8890487534785) rotate(0 -0.7358174872954351 -108.59467954147232)"><path d="M-10.5 -29.96 C-5.59 -17.54, -2.73 -4.95, 1.73 0.12 M-9.62 -28.6 C-8.76 -22.42, -4.76 -15.75, -0.38 -0.07" stroke="#e8590c" stroke-width="1" fill="none"></path></g><g transform="translate(403.3031463303655 278.8890487534785) rotate(0 -0.7358174872954351 -108.59467954147232)"><path d="M10.02 -30.14 C6.86 -17.65, 1.64 -4.99, 1.73 0.12 M10.9 -28.79 C7.04 -22.59, 6.33 -15.88, -0.38 -0.07" stroke="#e8590c" stroke-width="1" fill="none"></path></g><g transform="translate(403.3031463303655 278.8890487534785) rotate(0 -0.7358174872954351 -108.59467954147232)"><path d="M10.39 -190.79 C7.5 -200.55, 2.26 -210.14, 2.05 -217.07 M11.27 -189.44 C7.56 -196.24, 6.83 -202.52, -0.06 -217.27" stroke="#e8590c" stroke-width="1" fill="none"></path></g><g transform="translate(403.3031463303655 278.8890487534785) rotate(0 -0.7358174872954351 -108.59467954147232)"><path d="M-10.13 -190.94 C-4.95 -200.64, -2.12 -210.17, 2.05 -217.07 M-9.25 -189.58 C-8.24 -196.32, -4.25 -202.58, -0.06 -217.27" stroke="#e8590c" stroke-width="1" fill="none"></path></g></g><mask></mask></svg>