<svg version="1.1" xmlns="http://www.w3.org/2000/svg" viewBox="0 0 616.2890260780874 324.8981417239686" width="616.2890260780874" height="324.8981417239686">
  <!-- svg-source:excalidraw -->
  
  <defs>
    <style class="style-fonts">
      @font-face {
        font-family: "Virgil";
        src: url("https://excalidraw.com/Virgil.woff2");
      }
      @font-face {
        font-family: "Cascadia";
        src: url("https://excalidraw.com/Cascadia.woff2");
      }
    </style>
    
  </defs>
  <g stroke-linecap="round" transform="translate(228.88543424067336 10) rotate(0 86 30)"><path d="M15 0 M15 0 C57.87 2.38, 101.36 1.44, 157 0 M15 0 C51.99 1.1, 90.3 1.47, 157 0 M157 0 C167.69 -0.11, 170.26 4.06, 172 15 M157 0 C168.4 0.27, 172.6 7.25, 172 15 M172 15 C170.24 25.76, 172.46 35.36, 172 45 M172 15 C172.74 26.92, 170.99 36.76, 172 45 M172 45 C170.99 53.53, 167.63 58.08, 157 60 M172 45 C172.61 54.86, 168.98 60.65, 157 60 M157 60 C119.79 62.74, 81.15 61.71, 15 60 M157 60 C117.01 60.58, 75.89 60.62, 15 60 M15 60 C6.49 61.29, 0.89 56.43, 0 45 M15 60 C3.14 62.13, -1.06 55.26, 0 45 M0 45 C1.05 36.89, -0.79 24.43, 0 15 M0 45 C1.16 34.15, 0.35 20.59, 0 15 M0 15 C0.66 6.28, 4.26 1.41, 15 0 M0 15 C-0.71 4.94, 5.37 0.6, 15 0" stroke="#e8590c" stroke-width="1" fill="none"></path></g><g transform="translate(246.51551541743117 27.5) rotate(0 68.36991882324219 12.5)"><text x="68.36991882324219" y="0" font-family="Virgil, Segoe UI Emoji" font-size="20px" fill="#e8590c" text-anchor="middle" style="white-space: pre;" direction="ltr" dominant-baseline="text-before-edge">Identify Risks</text></g><g stroke-linecap="round" transform="translate(434.28902607808743 111.53634353772208) rotate(0 86 42.5)"><path d="M21.25 0 M21.25 0 C71.2 0, 120.53 0.9, 150.75 0 M21.25 0 C55.44 -0.75, 89.7 -0.25, 150.75 0 M150.75 0 C163.55 1.02, 172.51 7.19, 172 21.25 M150.75 0 C166.06 0.67, 172.44 5.54, 172 21.25 M172 21.25 C173.92 33.2, 170.45 41.4, 172 63.75 M172 21.25 C171.99 30.73, 171.88 40.26, 172 63.75 M172 63.75 C173.31 77.76, 163.04 85.65, 150.75 85 M172 63.75 C173.69 76.93, 165.12 83.08, 150.75 85 M150.75 85 C101.64 85.89, 51.05 84.52, 21.25 85 M150.75 85 C108.86 83.79, 68.63 84.26, 21.25 85 M21.25 85 C7.6 83.63, 0.97 77.58, 0 63.75 M21.25 85 C5.3 84.85, -0.82 76.89, 0 63.75 M0 63.75 C-0.91 50.28, -1.08 32.52, 0 21.25 M0 63.75 C-0.45 52.99, 0.13 43.69, 0 21.25 M0 21.25 C1.29 5.54, 7.25 -1.29, 21.25 0 M0 21.25 C1.74 8.78, 7.12 -0.5, 21.25 0" stroke="#e8590c" stroke-width="1" fill="none"></path></g><g transform="translate(442.62912159810696 116.53634353772208) rotate(0 77.65990447998047 37.5)"><text x="77.65990447998047" y="0" font-family="Virgil, Segoe UI Emoji" font-size="20px" fill="#e8590c" text-anchor="middle" style="white-space: pre;" direction="ltr" dominant-baseline="text-before-edge">Determine </text><text x="77.65990447998047" y="25" font-family="Virgil, Segoe UI Emoji" font-size="20px" fill="#e8590c" text-anchor="middle" style="white-space: pre;" direction="ltr" dominant-baseline="text-before-edge">Probability and </text><text x="77.65990447998047" y="50" font-family="Virgil, Segoe UI Emoji" font-size="20px" fill="#e8590c" text-anchor="middle" style="white-space: pre;" direction="ltr" dominant-baseline="text-before-edge">Impact</text></g><g stroke-linecap="round" transform="translate(226.52905782363484 229.89814172396856) rotate(0 86 42.5)"><path d="M21.25 0 M21.25 0 C61.75 -1.56, 100.29 1.18, 150.75 0 M21.25 0 C49.07 -0.04, 75.42 0.78, 150.75 0 M150.75 0 C162.93 1.49, 170.45 5.69, 172 21.25 M150.75 0 C165.37 -1.6, 174.2 6.38, 172 21.25 M172 21.25 C173.34 36.95, 171 50.46, 172 63.75 M172 21.25 C170.69 35.93, 171.62 52.24, 172 63.75 M172 63.75 C170.08 76.22, 163.01 84.9, 150.75 85 M172 63.75 C173.85 76.07, 165.61 83.99, 150.75 85 M150.75 85 C100.23 86.53, 47.9 87.6, 21.25 85 M150.75 85 C121.83 86.35, 92.52 86.13, 21.25 85 M21.25 85 C6.09 84.64, 1.8 79.54, 0 63.75 M21.25 85 C6.89 83.39, -0.11 79.5, 0 63.75 M0 63.75 C-1.59 49.36, -1.53 34.83, 0 21.25 M0 63.75 C-0.25 53.17, -0.44 42.19, 0 21.25 M0 21.25 C1.48 7.3, 5.86 -1.39, 21.25 0 M0 21.25 C1.21 5.74, 8.13 1.42, 21.25 0" stroke="#e8590c" stroke-width="1" fill="none"></path></g><g transform="translate(240.82913716933797 247.39814172396856) rotate(0 71.69992065429688 25)"><text x="71.69992065429688" y="0" font-family="Virgil, Segoe UI Emoji" font-size="20px" fill="#e8590c" text-anchor="middle" style="white-space: pre;" direction="ltr" dominant-baseline="text-before-edge">Find Solutions </text><text x="71.69992065429688" y="25" font-family="Virgil, Segoe UI Emoji" font-size="20px" fill="#e8590c" text-anchor="middle" style="white-space: pre;" direction="ltr" dominant-baseline="text-before-edge">for Each Risk</text></g><g stroke-linecap="round" transform="translate(10 109.15452380985451) rotate(0 85.99999999999994 42.5)"><path d="M21.25 0 M21.25 0 C63.29 1.23, 107.28 -0.88, 150.75 0 M21.25 0 C66.3 -0.56, 113.01 0.59, 150.75 0 M150.75 0 C166.64 -0.83, 173.76 8.3, 172 21.25 M150.75 0 C166.07 -1.19, 170.68 5.49, 172 21.25 M172 21.25 C173.15 28.94, 173.97 40.29, 172 63.75 M172 21.25 C171.73 33.37, 170.89 45.98, 172 63.75 M172 63.75 C173.93 77.6, 164.16 83.25, 150.75 85 M172 63.75 C174.04 79.04, 165.2 86.06, 150.75 85 M150.75 85 C116.26 85.61, 84.82 84.44, 21.25 85 M150.75 85 C112.17 85.99, 74.9 86.36, 21.25 85 M21.25 85 C6.02 86.99, -1.41 78.94, 0 63.75 M21.25 85 C7.3 83.54, -0.23 80.15, 0 63.75 M0 63.75 C-1.12 51.48, -1.84 39.44, 0 21.25 M0 63.75 C-0.07 49.54, -0.87 34.93, 0 21.25 M0 21.25 C0.67 5.21, 7.82 -0.48, 21.25 0 M0 21.25 C-1.35 5.27, 7.6 0.47, 21.25 0" stroke="#e8590c" stroke-width="1" fill="none"></path></g><g transform="translate(37.37007141113281 126.65452380985451) rotate(0 58.62992858886713 25)"><text x="58.62992858886719" y="0" font-family="Virgil, Segoe UI Emoji" font-size="20px" fill="#e8590c" text-anchor="middle" style="white-space: pre;" direction="ltr" dominant-baseline="text-before-edge">Periodically </text><text x="58.62992858886719" y="25" font-family="Virgil, Segoe UI Emoji" font-size="20px" fill="#e8590c" text-anchor="middle" style="white-space: pre;" direction="ltr" dominant-baseline="text-before-edge">Evaluate</text></g><g stroke-linecap="round"><g transform="translate(406.2908616787287 29.183179953687073) rotate(0 56.634273730279915 38.72122188719578)"><path d="M-0.7 -0.64 C15.88 0.66, 80.27 -5.19, 98.99 7.97 C117.71 21.12, 109.53 66.79, 111.62 78.29 M1.14 1.63 C17.59 3.15, 79.15 -2.88, 97.96 9.6 C116.76 22.07, 111.77 65.09, 113.97 76.48" stroke="#e8590c" stroke-width="1" fill="none"></path></g><g transform="translate(406.2908616787287 29.183179953687073) rotate(0 56.634273730279915 38.72122188719578)"><path d="M101.21 48.57 C105.61 54.32, 110.03 61.23, 113.45 74.66 M101.43 47.95 C104.54 55.84, 109.2 64.62, 114.2 76.03" stroke="#e8590c" stroke-width="1" fill="none"></path></g><g transform="translate(406.2908616787287 29.183179953687073) rotate(0 56.634273730279915 38.72122188719578)"><path d="M121.71 47.53 C120.82 53.42, 119.95 60.6, 113.45 74.66 M121.92 46.9 C119.42 55.25, 118.46 64.31, 114.2 76.03" stroke="#e8590c" stroke-width="1" fill="none"></path></g></g><mask></mask><g stroke-linecap="round"><g transform="translate(524.4188153226991 200.74957755346844) rotate(0 -60.52471230710273 38.74769567672254)"><path d="M0.31 0.79 C-1.97 12.49, 5.56 59.1, -14.53 71.27 C-34.63 83.45, -102.66 73.49, -120.24 73.83 M-0.98 0.15 C-2.83 12.07, 7.74 57.22, -12.32 69.74 C-32.39 82.25, -103.41 74.51, -121.36 75.26" stroke="#e8590c" stroke-width="1" fill="none"></path></g><g transform="translate(524.4188153226991 200.74957755346844) rotate(0 -60.52471230710273 38.74769567672254)"><path d="M-91.56 64.28 C-97.54 66.98, -105.64 69.5, -121.86 73.41 M-93.47 66.71 C-98.74 67.09, -103.91 68.78, -121.19 74.4" stroke="#e8590c" stroke-width="1" fill="none"></path></g><g transform="translate(524.4188153226991 200.74957755346844) rotate(0 -60.52471230710273 38.74769567672254)"><path d="M-92.19 84.79 C-98.19 82.73, -106.15 80.5, -121.86 73.41 M-94.09 87.22 C-99.27 83.45, -104.31 80.98, -121.19 74.4" stroke="#e8590c" stroke-width="1" fill="none"></path></g></g><mask></mask><g stroke-linecap="round"><g transform="translate(95.20274264829857 202.77321360789497) rotate(0 61.52885301667868 34.75052786960647)"><path d="M-0.49 -0.48 C1.88 10.09, -5.53 51.35, 15.14 62.81 C35.82 74.28, 105.62 67.43, 123.55 68.3 M1.45 -1.78 C3.54 9.06, -6.36 52.47, 13.92 64.39 C34.2 76.32, 104.96 68.98, 123.12 69.76" stroke="#e8590c" stroke-width="1" fill="none"></path></g><g transform="translate(95.20274264829857 202.77321360789497) rotate(0 61.52885301667868 34.75052786960647)"><path d="M11.09 25.96 C7.53 17.6, 3.23 5.97, -0.5 0.58 M11.13 26.24 C9.08 21.85, 7.33 16.28, -1.07 -0.22" stroke="#e8590c" stroke-width="1" fill="none"></path></g><g transform="translate(95.20274264829857 202.77321360789497) rotate(0 61.52885301667868 34.75052786960647)"><path d="M-9.37 27.54 C-5.25 18.67, -1.88 6.45, -0.5 0.58 M-9.33 27.82 C-7.23 23.29, -4.83 17.39, -1.07 -0.22" stroke="#e8590c" stroke-width="1" fill="none"></path></g></g><mask></mask><g stroke-linecap="round"><g transform="translate(90.434303320092 99.77217170987083) rotate(0 65.36226289671458 -30.2477056424287)"><path d="M-0.49 0.59 C1.94 -8.25, -7.1 -43.3, 14.85 -53.58 C36.8 -63.86, 111.64 -60.07, 131.21 -61.08 M1.46 -0.15 C3.76 -9.24, -7.21 -45.17, 14.26 -55.15 C35.73 -65.12, 110.5 -58.92, 130.28 -60.01" stroke="#e8590c" stroke-width="1" fill="none"></path></g><g transform="translate(90.434303320092 99.77217170987083) rotate(0 65.36226289671458 -30.2477056424287)"><path d="M102.94 -48.93 C113.01 -53.74, 119.69 -55.17, 131.9 -61.75 M102.55 -50.69 C108.13 -52.25, 114.4 -54.95, 129.8 -60.59" stroke="#e8590c" stroke-width="1" fill="none"></path></g><g transform="translate(90.434303320092 99.77217170987083) rotate(0 65.36226289671458 -30.2477056424287)"><path d="M103.19 -69.45 C113.07 -67.57, 119.68 -62.32, 131.9 -61.75 M102.8 -71.21 C108.26 -68.56, 114.47 -67.04, 129.8 -60.59" stroke="#e8590c" stroke-width="1" fill="none"></path></g></g><mask></mask></svg>
