<svg version="1.1" xmlns="http://www.w3.org/2000/svg" viewBox="0 0 897.4536404997058 513.1924176806752" width="897.4536404997058" height="513.1924176806752">
  <!-- svg-source:excalidraw -->
  
  <defs>
    <style class="style-fonts">
      @font-face {
        font-family: "Virgil";
        src: url("https://excalidraw.com/Virgil.woff2");
      }
      @font-face {
        font-family: "Cascadia";
        src: url("https://excalidraw.com/Cascadia.woff2");
      }
    </style>
    
  </defs>
  <g stroke-linecap="round" transform="translate(10 210.27900787554375) rotate(0 121.79708401853196 33.02244883601041)"><path d="M16.51 0 M16.51 0 C93.46 -0.71, 167.74 -1.33, 227.08 0 M16.51 0 C77.83 1.17, 138.37 0.74, 227.08 0 M227.08 0 C238.42 -1.3, 243.36 6.79, 243.59 16.51 M227.08 0 C239.2 -1.48, 243.45 6.87, 243.59 16.51 M243.59 16.51 C242.2 23.16, 243.89 32.89, 243.59 49.53 M243.59 16.51 C242.67 27.44, 243.59 37.12, 243.59 49.53 M243.59 49.53 C244.63 60.51, 239.38 65.52, 227.08 66.04 M243.59 49.53 C242.01 61.42, 238.9 66.09, 227.08 66.04 M227.08 66.04 C145.5 68.2, 64.2 66.22, 16.51 66.04 M227.08 66.04 C143.34 64.81, 59.68 64.55, 16.51 66.04 M16.51 66.04 C4.92 66.54, 1.26 61.06, 0 49.53 M16.51 66.04 C3.38 66.66, 0.22 59.41, 0 49.53 M0 49.53 C0.63 41.46, -1.18 37.61, 0 16.51 M0 49.53 C0.28 37.19, 0.67 25.88, 0 16.51 M0 16.51 C1.95 7.29, 6.79 0.78, 16.51 0 M0 16.51 C-0.15 3.94, 4.25 -1.8, 16.51 0" stroke="#e8590c" stroke-width="1" fill="none"></path></g><g transform="translate(46.02448963928407 231.7221564703558) rotate(0 85.53990936279297 12.500000000000014)"><text x="0" y="0" font-family="Virgil, Segoe UI Emoji" font-size="20px" fill="#e8590c" text-anchor="start" style="white-space: pre;" direction="ltr" dominant-baseline="text-before-edge">Define Objectives</text></g><g stroke-linecap="round" transform="translate(139.51661751266442 88.91078682890804) rotate(0 121.79708401853196 33.02244883601041)"><path d="M16.51 0 M16.51 0 C91.28 -0.9, 164.95 1.75, 227.08 0 M16.51 0 C99.25 1.06, 183.71 1.83, 227.08 0 M227.08 0 C238.9 1.78, 243.93 6.41, 243.59 16.51 M227.08 0 C236.61 1.44, 244.13 7.64, 243.59 16.51 M243.59 16.51 C244.83 29.62, 241.91 40.76, 243.59 49.53 M243.59 16.51 C242.94 25.43, 243.14 34.22, 243.59 49.53 M243.59 49.53 C244.56 62.29, 237.93 64.39, 227.08 66.04 M243.59 49.53 C241.94 59.63, 236.71 63.75, 227.08 66.04 M227.08 66.04 C154.48 64.85, 81.09 62.6, 16.51 66.04 M227.08 66.04 C165.69 64.47, 105.8 64.61, 16.51 66.04 M16.51 66.04 C4.76 66.01, 0.63 61.7, 0 49.53 M16.51 66.04 C6.27 65.84, 0.94 61.1, 0 49.53 M0 49.53 C-1.12 39.87, 1.03 32.25, 0 16.51 M0 49.53 C0.03 36.69, 0.34 23.59, 0 16.51 M0 16.51 C0.44 4.45, 6.51 -1.64, 16.51 0 M0 16.51 C0.44 5.46, 6.11 1.76, 16.51 0" stroke="#e8590c" stroke-width="1" fill="none"></path></g><g transform="translate(155.81341044472174 108.63848353613514) rotate(0 106.16987609863287 12.5)"><text x="0" y="0" font-family="Virgil, Segoe UI Emoji" font-size="20px" fill="#e8590c" text-anchor="start" style="white-space: pre;" direction="ltr" dominant-baseline="text-before-edge">Requirements Analysis</text></g><g stroke-linecap="round" transform="translate(417.4198233014275 10) rotate(0 50.176967711860016 33.02244883601041)"><path d="M16.51 0 M16.51 0 C35.88 -0.71, 58.44 -0.02, 83.84 0 M16.51 0 C31.85 0.55, 48.19 -0.03, 83.84 0 M83.84 0 C95.54 -0.57, 101.13 4.42, 100.35 16.51 M83.84 0 C94.08 -2.17, 98.57 6.9, 100.35 16.51 M100.35 16.51 C98.44 29.54, 99.25 37.85, 100.35 49.53 M100.35 16.51 C100.37 29.14, 99.86 40.34, 100.35 49.53 M100.35 49.53 C100.55 61.04, 96.43 67.2, 83.84 66.04 M100.35 49.53 C99.25 61.56, 95.41 66.96, 83.84 66.04 M83.84 66.04 C62.14 66.56, 39.27 64.83, 16.51 66.04 M83.84 66.04 C58.29 66.24, 30.5 66.82, 16.51 66.04 M16.51 66.04 C7.45 64.82, -1.75 60.81, 0 49.53 M16.51 66.04 C5.03 68.06, 0.43 60.03, 0 49.53 M0 49.53 C-1.25 37.42, -0.97 24.19, 0 16.51 M0 49.53 C-0.88 38.24, -0.89 27.51, 0 16.51 M0 16.51 C1.62 7.07, 4.66 1.82, 16.51 0 M0 16.51 C-0.45 5.48, 3.86 -0.11, 16.51 0" stroke="#e8590c" stroke-width="1" fill="none"></path></g><g transform="translate(433.7166162334846 29.727696707227096) rotate(0 30.569969177246094 12.5)"><text x="0" y="0" font-family="Virgil, Segoe UI Emoji" font-size="20px" fill="#e8590c" text-anchor="start" style="white-space: pre;" direction="ltr" dominant-baseline="text-before-edge">Design</text></g><g stroke-linecap="round" transform="translate(562.3755078023565 82.0489792785682) rotate(0 70.76239036287939 33.02244883601041)"><path d="M16.51 0 M16.51 0 C39.52 0.61, 62.34 -0.63, 125.01 0 M16.51 0 C59.08 -1.27, 101.17 -0.48, 125.01 0 M125.01 0 C137.93 -0.99, 140.97 3.88, 141.52 16.51 M125.01 0 C138.1 -0.19, 142.35 3.22, 141.52 16.51 M141.52 16.51 C142.79 25.9, 142.13 30.58, 141.52 49.53 M141.52 16.51 C141.19 26.41, 140.32 33.79, 141.52 49.53 M141.52 49.53 C142.68 59.99, 134.29 64.08, 125.01 66.04 M141.52 49.53 C142.77 62.54, 138.29 67.59, 125.01 66.04 M125.01 66.04 C97.79 66.09, 72.31 66.56, 16.51 66.04 M125.01 66.04 C99.69 64.73, 74.32 65.27, 16.51 66.04 M16.51 66.04 C7.27 65.38, 0.95 60.19, 0 49.53 M16.51 66.04 C7.24 64.8, -1.37 59.06, 0 49.53 M0 49.53 C-0.63 40.1, -1.42 34.12, 0 16.51 M0 49.53 C-0.39 36.96, 0.11 25.18, 0 16.51 M0 16.51 C-1.03 4.75, 4.25 0.31, 16.51 0 M0 16.51 C2.1 6.09, 4.16 1.06, 16.51 0" stroke="#e8590c" stroke-width="1" fill="none"></path></g><g transform="translate(578.6723007344136 101.7766759857953) rotate(0 50.62994384765625 12.5)"><text x="0" y="0" font-family="Virgil, Segoe UI Emoji" font-size="20px" fill="#e8590c" text-anchor="start" style="white-space: pre;" direction="ltr" dominant-baseline="text-before-edge">Programing</text></g><g stroke-linecap="round" transform="translate(643.8594724626417 173.8256552643635) rotate(0 121.79708401853202 33.02244883601041)"><path d="M16.51 0 M16.51 0 C67.21 -0.25, 119.01 0.4, 227.08 0 M16.51 0 C64.2 0.1, 111.02 -0.55, 227.08 0 M227.08 0 C238.24 0.57, 245.46 4.47, 243.59 16.51 M227.08 0 C237.22 -1.44, 243.95 7.6, 243.59 16.51 M243.59 16.51 C245.34 27.69, 243.07 39.9, 243.59 49.53 M243.59 16.51 C244.3 28.33, 243.98 42.51, 243.59 49.53 M243.59 49.53 C242.73 61.39, 236.53 65.3, 227.08 66.04 M243.59 49.53 C242.81 62.82, 240.22 67.88, 227.08 66.04 M227.08 66.04 C166.8 67.55, 109.6 66.4, 16.51 66.04 M227.08 66.04 C147.54 65.64, 66.72 65.54, 16.51 66.04 M16.51 66.04 C5.05 64.76, 1.14 60.86, 0 49.53 M16.51 66.04 C3.6 68.33, -0.03 61.98, 0 49.53 M0 49.53 C-1.5 37.15, -0.14 30.14, 0 16.51 M0 49.53 C0.66 37.03, -0.21 26.39, 0 16.51 M0 16.51 C0.41 4.47, 7.49 0.97, 16.51 0 M0 16.51 C-1.33 4.38, 4.64 -0.07, 16.51 0" stroke="#e8590c" stroke-width="1" fill="none"></path></g><g transform="translate(674.7376064391709 196.12652980296798) rotate(0 95.37989044189453 12.5)"><text x="0" y="0" font-family="Virgil, Segoe UI Emoji" font-size="20px" fill="#e8590c" text-anchor="start" style="white-space: pre;" direction="ltr" dominant-baseline="text-before-edge">Verification Testing</text></g><g stroke-linecap="round" transform="translate(595.8268196102628 355.66355534836885) rotate(0 83.62827951976669 33.022448836010426)"><path d="M16.51 0 M16.51 0 C49.56 1.48, 84.27 2.3, 150.75 0 M16.51 0 C69.14 -1.06, 121.43 -0.04, 150.75 0 M150.75 0 C162.51 0.04, 168.29 5.12, 167.26 16.51 M150.75 0 C163.15 -0.39, 167.82 3.78, 167.26 16.51 M167.26 16.51 C169.33 24.37, 168.7 35.36, 167.26 49.53 M167.26 16.51 C167.21 28.27, 167.57 39.87, 167.26 49.53 M167.26 49.53 C167.84 59.03, 163.18 64.37, 150.75 66.04 M167.26 49.53 C167.52 60.49, 161.4 65.97, 150.75 66.04 M150.75 66.04 C107.94 64.37, 65.33 66.39, 16.51 66.04 M150.75 66.04 C100.84 65.09, 50.09 66.81, 16.51 66.04 M16.51 66.04 C7.18 66.51, 0.44 60.5, 0 49.53 M16.51 66.04 C4.51 66.7, -1.55 62.11, 0 49.53 M0 49.53 C-1.02 40.17, -0.23 30.51, 0 16.51 M0 49.53 C0.65 38.93, -0.04 28.16, 0 16.51 M0 16.51 C1.71 5.91, 6.13 0.05, 16.51 0 M0 16.51 C1.08 4.98, 3.65 -1.36, 16.51 0" stroke="#e8590c" stroke-width="1" fill="none"></path></g><g transform="translate(612.1236125423203 375.39125205559594) rotate(0 66.51992797851562 12.5)"><text x="0" y="0" font-family="Virgil, Segoe UI Emoji" font-size="20px" fill="#e8590c" text-anchor="start" style="white-space: pre;" direction="ltr" dominant-baseline="text-before-edge">Beta Testing</text></g><g stroke-linecap="round" transform="translate(363.38308884250125 437.1475200086544) rotate(0 91.34781301389887 33.022448836010426)"><path d="M16.51 0 M16.51 0 C65.41 -0.49, 110.82 -1.22, 166.18 0 M16.51 0 C65.65 -0.56, 116.85 -1.04, 166.18 0 M166.18 0 C176.35 0.02, 181.22 6.03, 182.7 16.51 M166.18 0 C177.63 1.22, 184.18 3.29, 182.7 16.51 M182.7 16.51 C183.67 30.79, 184.14 42.71, 182.7 49.53 M182.7 16.51 C183.28 23.45, 181.78 30.93, 182.7 49.53 M182.7 49.53 C182.93 62.3, 176.71 67.93, 166.18 66.04 M182.7 49.53 C181.19 59.12, 174.94 64.79, 166.18 66.04 M166.18 66.04 C131.79 65.24, 95.6 65.3, 16.51 66.04 M166.18 66.04 C129.27 66.84, 93.94 66.22, 16.51 66.04 M16.51 66.04 C6.33 66.05, -1.22 61.94, 0 49.53 M16.51 66.04 C6.1 64.19, -1.88 60.81, 0 49.53 M0 49.53 C-0.44 38.3, 0.07 27.05, 0 16.51 M0 49.53 C0.62 36.46, 0.56 24.27, 0 16.51 M0 16.51 C-0.17 3.62, 7.3 1.4, 16.51 0 M0 16.51 C-0.71 4.09, 4.62 1.07, 16.51 0" stroke="#e8590c" stroke-width="1" fill="none"></path></g><g transform="translate(384.8262374373136 457.732942659674) rotate(0 71.6499252319336 12.5)"><text x="0" y="0" font-family="Virgil, Segoe UI Emoji" font-size="20px" fill="#e8590c" text-anchor="start" style="white-space: pre;" direction="ltr" dominant-baseline="text-before-edge">Implementation</text></g><g stroke-linecap="round" transform="translate(153.24023261334378 341.08221430389676) rotate(0 75.05102008184184 33.022448836010426)"><path d="M16.51 0 M16.51 0 C52.28 -2.15, 87.01 -1.91, 133.59 0 M16.51 0 C47.55 1.54, 79.82 -0.22, 133.59 0 M133.59 0 C143.91 1.26, 150.12 4.65, 150.1 16.51 M133.59 0 C145.9 1.29, 150.36 7.74, 150.1 16.51 M150.1 16.51 C151.58 30.33, 148.67 40.68, 150.1 49.53 M150.1 16.51 C150.31 29.71, 150.84 41.22, 150.1 49.53 M150.1 49.53 C149.14 60.4, 146.28 67.85, 133.59 66.04 M150.1 49.53 C148.05 60.82, 143.33 63.82, 133.59 66.04 M133.59 66.04 C100.51 66.77, 66.48 66.05, 16.51 66.04 M133.59 66.04 C88.3 66.29, 42.3 65.93, 16.51 66.04 M16.51 66.04 C5.92 64.75, -1.64 58.87, 0 49.53 M16.51 66.04 C3.78 67.94, -2.22 58.68, 0 49.53 M0 49.53 C-0.26 37.61, -0.75 27.95, 0 16.51 M0 49.53 C0.71 38.55, 0.02 28.35, 0 16.51 M0 16.51 C-1.71 6.21, 6.44 0.17, 16.51 0 M0 16.51 C0.37 6.52, 6.61 0.07, 16.51 0" stroke="#e8590c" stroke-width="1" fill="none"></path></g><g transform="translate(169.53702554540132 360.80991101112386) rotate(0 58.80994415283203 12.5)"><text x="0" y="0" font-family="Virgil, Segoe UI Emoji" font-size="20px" fill="#e8590c" text-anchor="start" style="white-space: pre;" direction="ltr" dominant-baseline="text-before-edge">Maintenance</text></g><g stroke-linecap="round"><g transform="translate(143.8052472316266 204.2749262689964) rotate(0 26.051611436508267 -25.098417691156158)"><path d="M-0.66 -0.13 C2.25 -4.91, 9 -20.37, 17.91 -28.69 C26.81 -37.02, 46.72 -46.42, 52.76 -50.07 M1.2 -1.24 C3.98 -6.39, 8.92 -22.62, 17.35 -30.57 C25.78 -38.51, 45.52 -45.69, 51.78 -48.92" stroke="#e8590c" stroke-width="1" fill="none"></path></g><g transform="translate(143.8052472316266 204.2749262689964) rotate(0 26.051611436508267 -25.098417691156158)"><path d="M36.72 -33.17 C42.71 -39.91, 46.38 -42.47, 50.34 -48.31 M37.13 -34.26 C41.55 -39.11, 47.61 -44.34, 51.77 -48.28" stroke="#e8590c" stroke-width="1" fill="none"></path></g><g transform="translate(143.8052472316266 204.2749262689964) rotate(0 26.051611436508267 -25.098417691156158)"><path d="M30.88 -46.1 C38.83 -48.47, 44.46 -46.68, 50.34 -48.31 M31.28 -47.19 C37.94 -47.29, 46.14 -47.79, 51.77 -48.28" stroke="#e8590c" stroke-width="1" fill="none"></path></g></g><mask></mask><g stroke-linecap="round"><g transform="translate(269.0332350253285 84.1932941380494) rotate(0 69.15312197700001 -25.845494534900226)"><path d="M-0.69 -0.17 C6.4 -6.68, 20.27 -29.75, 43.56 -38 C66.84 -46.25, 123.31 -47.66, 139 -49.67 M1.15 -1.3 C8.05 -7.12, 20.03 -28.23, 42.96 -36.6 C65.89 -44.98, 122.91 -48.89, 138.71 -51.53" stroke="#e8590c" stroke-width="1" fill="none"></path></g><g transform="translate(269.0332350253285 84.1932941380494) rotate(0 69.15312197700001 -25.845494534900226)"><path d="M111.67 -36.86 C121.61 -41.49, 133.83 -48.85, 139.54 -51.22 M112.93 -38.75 C117.71 -40.59, 122.49 -43.75, 138.29 -52.27" stroke="#e8590c" stroke-width="1" fill="none"></path></g><g transform="translate(269.0332350253285 84.1932941380494) rotate(0 69.15312197700001 -25.845494534900226)"><path d="M109.22 -57.23 C120.28 -54.07, 133.44 -53.64, 139.54 -51.22 M110.48 -59.12 C115.66 -56.64, 120.96 -55.46, 138.29 -52.27" stroke="#e8590c" stroke-width="1" fill="none"></path></g></g><mask></mask><g stroke-linecap="round"><g transform="translate(521.2046625003173 35.302915341878105) rotate(0 35.18945429061921 20.655827956755324)"><path d="M0.19 -0.62 C7.21 1.27, 29.81 4.44, 41.7 11.3 C53.59 18.15, 66.62 35.56, 71.55 40.51 M-1.17 1.67 C5.78 3.78, 29 6.2, 41.03 12.91 C53.05 19.62, 65.89 37.61, 70.97 41.93" stroke="#e8590c" stroke-width="1" fill="none"></path></g><g transform="translate(521.2046625003173 35.302915341878105) rotate(0 35.18945429061921 20.655827956755324)"><path d="M51.29 33.3 C57.46 35.49, 62.45 37.49, 72.16 43.72 M52.94 31.62 C56.42 35.49, 59.86 37.08, 70.57 41.8" stroke="#e8590c" stroke-width="1" fill="none"></path></g><g transform="translate(521.2046625003173 35.302915341878105) rotate(0 35.18945429061921 20.655827956755324)"><path d="M61.77 23.54 C65.18 28.31, 67.42 32.87, 72.16 43.72 M63.42 21.86 C64.67 27.79, 65.84 31.49, 70.57 41.8" stroke="#e8590c" stroke-width="1" fill="none"></path></g></g><mask></mask><g stroke-linecap="round"><g transform="translate(706.4734663594926 118.50233188974852) rotate(0 21.508125811439413 27.17805956798189)"><path d="M1.2 0.85 C6.66 3.57, 26.57 8.53, 33.48 17.25 C40.39 25.98, 41.03 47.02, 42.65 53.22 M0.37 0.25 C5.69 3.1, 26.1 9.87, 33 18.84 C39.9 27.82, 40 47.95, 41.76 54.11" stroke="#e8590c" stroke-width="1" fill="none"></path></g><g transform="translate(706.4734663594926 118.50233188974852) rotate(0 21.508125811439413 27.17805956798189)"><path d="M33.83 38.78 C36.08 42.87, 37.94 49.7, 42.44 54.63 M32.76 38.26 C35.5 41.59, 37.25 47.35, 42.04 54.65" stroke="#e8590c" stroke-width="1" fill="none"></path></g><g transform="translate(706.4734663594926 118.50233188974852) rotate(0 21.508125811439413 27.17805956798189)"><path d="M46.77 36.74 C44.41 41.69, 41.65 49.25, 42.44 54.63 M45.69 36.22 C44.48 40.25, 42.28 46.63, 42.04 54.65" stroke="#e8590c" stroke-width="1" fill="none"></path></g></g><mask></mask><g stroke-linecap="round"><g transform="translate(729.6320668418895 241.15714185207298) rotate(0 -21.895436131718043 53.95525442029437)"><path d="M-0.06 -0.3 C-0.92 10.39, 1.91 46.43, -5.23 64.71 C-12.38 83, -36.81 102.14, -42.93 109.42 M-1.56 -1.51 C-2.58 9.29, 0.8 47.86, -6.22 66 C-13.25 84.14, -37.89 100.14, -43.73 107.33" stroke="#e8590c" stroke-width="1" fill="none"></path></g><g transform="translate(729.6320668418895 241.15714185207298) rotate(0 -21.895436131718043 53.95525442029437)"><path d="M-31.05 81.48 C-35.08 89.09, -37.35 98.23, -44.68 105.47 M-31.5 81.52 C-35.93 90.47, -40.19 99.19, -44.69 108.29" stroke="#e8590c" stroke-width="1" fill="none"></path></g><g transform="translate(729.6320668418895 241.15714185207298) rotate(0 -21.895436131718043 53.95525442029437)"><path d="M-17.61 95.97 C-25.66 99.31, -31.88 104.19, -44.68 105.47 M-18.06 96.01 C-27.15 100.08, -36.04 103.8, -44.69 108.29" stroke="#e8590c" stroke-width="1" fill="none"></path></g></g><mask></mask><g stroke-linecap="round"><g transform="translate(661.8717172822836 418.70641221711605) rotate(0 -56.18403499675037 24.59374628174666)"><path d="M0.67 0.07 C-7.37 7.26, -29.68 34.97, -48.56 43.31 C-67.44 51.65, -101.9 48.99, -112.6 50.13 M-0.44 -0.94 C-8.58 5.87, -30.57 33.25, -49.33 41.41 C-68.1 49.56, -102.56 46.31, -113.03 47.98" stroke="#e8590c" stroke-width="1" fill="none"></path></g><g transform="translate(661.8717172822836 418.70641221711605) rotate(0 -56.18403499675037 24.59374628174666)"><path d="M-85.18 37.11 C-92.1 40.85, -99.7 43.77, -112.35 49.44 M-84.35 35.97 C-92.46 38.86, -98.57 41.92, -112.17 48.1" stroke="#e8590c" stroke-width="1" fill="none"></path></g><g transform="translate(661.8717172822836 418.70641221711605) rotate(0 -56.18403499675037 24.59374628174666)"><path d="M-84.32 57.61 C-91.51 55.8, -99.33 53.15, -112.35 49.44 M-83.49 56.47 C-91.97 54.65, -98.27 53, -112.17 48.1" stroke="#e8590c" stroke-width="1" fill="none"></path></g></g><mask></mask><g stroke-linecap="round"><g transform="translate(360.80991101112375 468.4545169570798) rotate(0 -61.87390056005654 -30.2928434092411)"><path d="M0.47 1.19 C-11.78 -0.41, -51.51 1.38, -72.29 -9.11 C-93.08 -19.61, -115.49 -53.2, -124.22 -61.77 M-0.74 0.77 C-13.28 -0.72, -53.21 2.42, -73.37 -7.86 C-93.53 -18.14, -113.09 -52.35, -121.69 -60.92" stroke="#e8590c" stroke-width="1" fill="none"></path></g><g transform="translate(360.80991101112375 468.4545169570798) rotate(0 -61.87390056005654 -30.2928434092411)"><path d="M-94.25 -45.47 C-107.37 -52.47, -118.11 -59.51, -121.12 -60.33 M-96.46 -45.64 C-100.98 -48.25, -107.82 -52.04, -121.85 -60.44" stroke="#e8590c" stroke-width="1" fill="none"></path></g><g transform="translate(360.80991101112375 468.4545169570798) rotate(0 -61.87390056005654 -30.2928434092411)"><path d="M-110.4 -32.81 C-117.11 -44.94, -121.4 -57.04, -121.12 -60.33 M-112.61 -32.98 C-113.66 -38.1, -117.1 -44.55, -121.85 -60.44" stroke="#e8590c" stroke-width="1" fill="none"></path></g></g><mask></mask><g stroke-linecap="round"><g transform="translate(171.25247743298598 340.6533513320005) rotate(0 -32.02110614058989 -30.728408003537908)"><path d="M-0.54 0.54 C-8.88 -4.06, -39.62 -16.72, -50.33 -26.82 C-61.05 -36.92, -62.41 -54.34, -64.83 -60.08 M1.37 -0.23 C-6.99 -5.23, -39.56 -18.32, -50.69 -28.61 C-61.82 -38.91, -63.11 -56.71, -65.41 -61.99" stroke="#e8590c" stroke-width="1" fill="none"></path></g><g transform="translate(171.25247743298598 340.6533513320005) rotate(0 -32.02110614058989 -30.728408003537908)"><path d="M-54.13 -45.55 C-56.93 -50.77, -59.48 -54.86, -65.94 -61.89 M-55.79 -46.53 C-57.62 -50.76, -59.1 -53.98, -65.3 -62.65" stroke="#e8590c" stroke-width="1" fill="none"></path></g><g transform="translate(171.25247743298598 340.6533513320005) rotate(0 -32.02110614058989 -30.728408003537908)"><path d="M-66.06 -42.27 C-65.64 -48.32, -64.95 -53.31, -65.94 -61.89 M-67.71 -43.24 C-66.63 -48.23, -65.24 -52.25, -65.3 -62.65" stroke="#e8590c" stroke-width="1" fill="none"></path></g></g><mask></mask></svg>